# xmcd
#
# Track frame offsets:
# 150
# 12176
# 23730
# 38025
# 53864
# 67354
# 86080
# 99258
# 110909
# 127726
# 141131
# 156357
# 169625
# 191601
# 205686
# 215757
# 226903
#
# Disc length: 3146 seconds
#
#
# Revision: 0
# Processed by: cddbd v1.4PL0 Copyright (c) Steve Scherf et al.
# Submitted via: FreeRIP 2.52 
#
DISCID=ea0c4811
DTITLE=The Golden Gospel Choir - Amazing Grace
DYEAR=1900
DGENRE=Gospel
TTITLE0=Come By Here
TTITLE1=All Right Now
TTITLE2=Mama
TTITLE3=Soon and very soon
TTITLE4=In my Vathers House
TTITLE5=Praise the Lord
TTITLE6=It's me oh Lord
TTITLE7=Kumbayah
TTITLE8=Amazing Grace
TTITLE9=I'm depending on you
TTITLE10=Fly Away
TTITLE11=Hush
TTITLE12=Swing Low
TTITLE13=Down by the Riverside
TTITLE14=Angels
TTITLE15=Oh Happy Day
TTITLE16=Get right Church
EXTD=
EXTT0=
EXTT1=
EXTT2=
EXTT3=
EXTT4=
EXTT5=
EXTT6=
EXTT7=
EXTT8=
EXTT9=
EXTT10=
EXTT11=
EXTT12=
EXTT13=
EXTT14=
EXTT15=
EXTT16=
PLAYORDER=
